<mxfile host="app.diagrams.net" modified="2021-11-09T17:22:51.508Z" agent="5.0 (Windows NT 10.0; Win64; x64) AppleWebKit/537.36 (KHTML, like Gecko) Chrome/95.0.4638.69 Safari/537.36" etag="xY_DDexisNF942Fxb_2S" version="15.7.1" type="github">
  <diagram id="C5RBs43oDa-KdzZeNtuy" name="Page-1">
    <mxGraphModel dx="868" dy="527" grid="1" gridSize="10" guides="1" tooltips="1" connect="1" arrows="1" fold="1" page="1" pageScale="1" pageWidth="827" pageHeight="1169" math="0" shadow="0">
      <root>
        <mxCell id="WIyWlLk6GJQsqaUBKTNV-0" />
        <mxCell id="WIyWlLk6GJQsqaUBKTNV-1" parent="WIyWlLk6GJQsqaUBKTNV-0" />
        <mxCell id="loBwQ56x5LxqGYdifCyA-49" value="Analista&amp;nbsp; Logistica Reversa" style="rounded=0;whiteSpace=wrap;html=1;fillColor=#ffe6cc;strokeColor=#d79b00;" parent="WIyWlLk6GJQsqaUBKTNV-1" vertex="1">
          <mxGeometry x="530" y="327.5" width="90" height="55" as="geometry" />
        </mxCell>
        <mxCell id="loBwQ56x5LxqGYdifCyA-50" value="Planilha de Excel enviada pelo Transportador" style="shape=process;whiteSpace=wrap;html=1;backgroundOutline=1;fillColor=#dae8fc;strokeColor=#6c8ebf;" parent="WIyWlLk6GJQsqaUBKTNV-1" vertex="1">
          <mxGeometry x="230" y="327.5" width="110" height="60" as="geometry" />
        </mxCell>
        <mxCell id="loBwQ56x5LxqGYdifCyA-51" value="Necessidadde do Retorno da Mercadoria" style="shape=hexagon;perimeter=hexagonPerimeter2;whiteSpace=wrap;html=1;fixedSize=1;fillColor=#f8cecc;strokeColor=#b85450;" parent="WIyWlLk6GJQsqaUBKTNV-1" vertex="1">
          <mxGeometry x="369.75" y="210" width="121" height="70" as="geometry" />
        </mxCell>
        <mxCell id="loBwQ56x5LxqGYdifCyA-52" value="Solicitação do Agendamento ou autorização de Permuta" style="whiteSpace=wrap;html=1;aspect=fixed;dashed=1;fillColor=#d5e8d4;strokeColor=#82b366;" parent="WIyWlLk6GJQsqaUBKTNV-1" vertex="1">
          <mxGeometry x="385.25" y="310" width="90" height="90" as="geometry" />
        </mxCell>
        <mxCell id="loBwQ56x5LxqGYdifCyA-53" value="" style="endArrow=classic;html=1;rounded=0;" parent="WIyWlLk6GJQsqaUBKTNV-1" edge="1">
          <mxGeometry width="50" height="50" relative="1" as="geometry">
            <mxPoint x="340" y="349" as="sourcePoint" />
            <mxPoint x="370" y="349" as="targetPoint" />
          </mxGeometry>
        </mxCell>
        <mxCell id="loBwQ56x5LxqGYdifCyA-54" value="" style="endArrow=classic;html=1;rounded=0;" parent="WIyWlLk6GJQsqaUBKTNV-1" edge="1">
          <mxGeometry width="50" height="50" relative="1" as="geometry">
            <mxPoint x="520.25" y="350" as="sourcePoint" />
            <mxPoint x="480.25" y="350" as="targetPoint" />
          </mxGeometry>
        </mxCell>
        <mxCell id="loBwQ56x5LxqGYdifCyA-55" value="" style="endArrow=classic;html=1;rounded=0;entryX=0.5;entryY=0;entryDx=0;entryDy=0;" parent="WIyWlLk6GJQsqaUBKTNV-1" target="loBwQ56x5LxqGYdifCyA-52" edge="1">
          <mxGeometry width="50" height="50" relative="1" as="geometry">
            <mxPoint x="430" y="280" as="sourcePoint" />
            <mxPoint x="420" y="280" as="targetPoint" />
          </mxGeometry>
        </mxCell>
        <mxCell id="loBwQ56x5LxqGYdifCyA-56" value="" style="endArrow=classic;html=1;rounded=0;" parent="WIyWlLk6GJQsqaUBKTNV-1" edge="1">
          <mxGeometry width="50" height="50" relative="1" as="geometry">
            <mxPoint x="429.75" y="400" as="sourcePoint" />
            <mxPoint x="429.75" y="420" as="targetPoint" />
            <Array as="points">
              <mxPoint x="430.12" y="420" />
            </Array>
          </mxGeometry>
        </mxCell>
        <mxCell id="loBwQ56x5LxqGYdifCyA-57" value="" style="shape=sumEllipse;perimeter=ellipsePerimeter;whiteSpace=wrap;html=1;backgroundOutline=1;strokeColor=#999999;" parent="WIyWlLk6GJQsqaUBKTNV-1" vertex="1">
          <mxGeometry x="410.25" y="420" width="40" height="40" as="geometry" />
        </mxCell>
        <mxCell id="loBwQ56x5LxqGYdifCyA-58" value="" style="endArrow=classic;html=1;rounded=0;" parent="WIyWlLk6GJQsqaUBKTNV-1" edge="1">
          <mxGeometry width="50" height="50" relative="1" as="geometry">
            <mxPoint x="260.5" y="430" as="sourcePoint" />
            <mxPoint x="260" y="479.5" as="targetPoint" />
          </mxGeometry>
        </mxCell>
        <mxCell id="loBwQ56x5LxqGYdifCyA-59" value="" style="endArrow=none;html=1;rounded=0;" parent="WIyWlLk6GJQsqaUBKTNV-1" edge="1">
          <mxGeometry width="50" height="50" relative="1" as="geometry">
            <mxPoint x="260" y="430" as="sourcePoint" />
            <mxPoint x="364" y="429.5" as="targetPoint" />
            <Array as="points">
              <mxPoint x="364" y="429.5" />
            </Array>
          </mxGeometry>
        </mxCell>
        <mxCell id="loBwQ56x5LxqGYdifCyA-60" value="" style="endArrow=none;html=1;rounded=0;" parent="WIyWlLk6GJQsqaUBKTNV-1" edge="1">
          <mxGeometry width="50" height="50" relative="1" as="geometry">
            <mxPoint x="468" y="430" as="sourcePoint" />
            <mxPoint x="570" y="430" as="targetPoint" />
          </mxGeometry>
        </mxCell>
        <mxCell id="loBwQ56x5LxqGYdifCyA-61" value="" style="endArrow=classic;html=1;rounded=0;" parent="WIyWlLk6GJQsqaUBKTNV-1" edge="1">
          <mxGeometry width="50" height="50" relative="1" as="geometry">
            <mxPoint x="570" y="430" as="sourcePoint" />
            <mxPoint x="570" y="480" as="targetPoint" />
          </mxGeometry>
        </mxCell>
        <mxCell id="loBwQ56x5LxqGYdifCyA-62" value="" style="shape=hexagon;perimeter=hexagonPerimeter2;whiteSpace=wrap;html=1;fixedSize=1;strokeColor=#b85450;fillColor=#f8cecc;" parent="WIyWlLk6GJQsqaUBKTNV-1" vertex="1">
          <mxGeometry x="200" y="480" width="120" height="80" as="geometry" />
        </mxCell>
        <mxCell id="loBwQ56x5LxqGYdifCyA-63" value="Autorizado Permuta ao Transportador" style="shape=hexagon;perimeter=hexagonPerimeter2;whiteSpace=wrap;html=1;fixedSize=1;strokeColor=#b85450;fillColor=#f8cecc;" parent="WIyWlLk6GJQsqaUBKTNV-1" vertex="1">
          <mxGeometry x="530" y="470" width="120" height="80" as="geometry" />
        </mxCell>
        <mxCell id="loBwQ56x5LxqGYdifCyA-64" value="" style="endArrow=classic;html=1;rounded=0;" parent="WIyWlLk6GJQsqaUBKTNV-1" edge="1">
          <mxGeometry width="50" height="50" relative="1" as="geometry">
            <mxPoint x="590" y="560" as="sourcePoint" />
            <mxPoint x="590" y="590" as="targetPoint" />
          </mxGeometry>
        </mxCell>
        <mxCell id="loBwQ56x5LxqGYdifCyA-65" value="Lançamento de Ordem e Remessa" style="rounded=0;whiteSpace=wrap;html=1;strokeColor=#82b366;dashed=1;fillColor=#d5e8d4;" parent="WIyWlLk6GJQsqaUBKTNV-1" vertex="1">
          <mxGeometry x="530" y="595" width="120" height="60" as="geometry" />
        </mxCell>
        <mxCell id="loBwQ56x5LxqGYdifCyA-66" value="Analista Logistica Reversa" style="rounded=0;whiteSpace=wrap;html=1;strokeColor=#d6b656;fillColor=#fff2cc;" parent="WIyWlLk6GJQsqaUBKTNV-1" vertex="1">
          <mxGeometry x="711" y="602.5" width="90" height="45" as="geometry" />
        </mxCell>
        <mxCell id="loBwQ56x5LxqGYdifCyA-67" value="SAP" style="shape=process;whiteSpace=wrap;html=1;backgroundOutline=1;strokeColor=#6c8ebf;fillColor=#dae8fc;" parent="WIyWlLk6GJQsqaUBKTNV-1" vertex="1">
          <mxGeometry x="380.25" y="595" width="100" height="60" as="geometry" />
        </mxCell>
        <mxCell id="loBwQ56x5LxqGYdifCyA-68" value="" style="endArrow=classic;html=1;rounded=0;" parent="WIyWlLk6GJQsqaUBKTNV-1" edge="1">
          <mxGeometry width="50" height="50" relative="1" as="geometry">
            <mxPoint x="700" y="624.5" as="sourcePoint" />
            <mxPoint x="660" y="624.5" as="targetPoint" />
          </mxGeometry>
        </mxCell>
        <mxCell id="loBwQ56x5LxqGYdifCyA-69" value="" style="endArrow=classic;html=1;rounded=0;entryX=0;entryY=0.5;entryDx=0;entryDy=0;" parent="WIyWlLk6GJQsqaUBKTNV-1" target="loBwQ56x5LxqGYdifCyA-65" edge="1">
          <mxGeometry width="50" height="50" relative="1" as="geometry">
            <mxPoint x="490" y="625" as="sourcePoint" />
            <mxPoint x="520" y="625" as="targetPoint" />
          </mxGeometry>
        </mxCell>
        <mxCell id="loBwQ56x5LxqGYdifCyA-70" value="Analista Logistica Reversa" style="rounded=0;whiteSpace=wrap;html=1;strokeColor=#d6b656;fillColor=#fff2cc;" parent="WIyWlLk6GJQsqaUBKTNV-1" vertex="1">
          <mxGeometry x="711" y="485" width="90" height="50" as="geometry" />
        </mxCell>
        <mxCell id="loBwQ56x5LxqGYdifCyA-71" value="" style="endArrow=classic;html=1;rounded=0;entryX=0;entryY=0.5;entryDx=0;entryDy=0;" parent="WIyWlLk6GJQsqaUBKTNV-1" target="loBwQ56x5LxqGYdifCyA-70" edge="1">
          <mxGeometry width="50" height="50" relative="1" as="geometry">
            <mxPoint x="660" y="510" as="sourcePoint" />
            <mxPoint x="700" y="490" as="targetPoint" />
          </mxGeometry>
        </mxCell>
        <mxCell id="loBwQ56x5LxqGYdifCyA-72" value="E-mail com autorização" style="shape=process;whiteSpace=wrap;html=1;backgroundOutline=1;strokeColor=#6c8ebf;fillColor=#dae8fc;" parent="WIyWlLk6GJQsqaUBKTNV-1" vertex="1">
          <mxGeometry x="380" y="480" width="105.13" height="60" as="geometry" />
        </mxCell>
        <mxCell id="loBwQ56x5LxqGYdifCyA-73" value="" style="endArrow=classic;html=1;rounded=0;" parent="WIyWlLk6GJQsqaUBKTNV-1" edge="1">
          <mxGeometry width="50" height="50" relative="1" as="geometry">
            <mxPoint x="490" y="510" as="sourcePoint" />
            <mxPoint x="520" y="510" as="targetPoint" />
          </mxGeometry>
        </mxCell>
        <mxCell id="loBwQ56x5LxqGYdifCyA-74" value="" style="endArrow=classic;html=1;rounded=0;" parent="WIyWlLk6GJQsqaUBKTNV-1" edge="1">
          <mxGeometry width="50" height="50" relative="1" as="geometry">
            <mxPoint x="590" y="670" as="sourcePoint" />
            <mxPoint x="590" y="700" as="targetPoint" />
          </mxGeometry>
        </mxCell>
        <mxCell id="loBwQ56x5LxqGYdifCyA-75" value="Colocar E-mail com autorização de Permuta na Pasta da Rede" style="rounded=0;whiteSpace=wrap;html=1;strokeColor=#82b366;fillColor=#d5e8d4;dashed=1;" parent="WIyWlLk6GJQsqaUBKTNV-1" vertex="1">
          <mxGeometry x="530" y="710" width="120" height="60" as="geometry" />
        </mxCell>
        <mxCell id="loBwQ56x5LxqGYdifCyA-76" value="" style="endArrow=classic;html=1;rounded=0;" parent="WIyWlLk6GJQsqaUBKTNV-1" edge="1">
          <mxGeometry width="50" height="50" relative="1" as="geometry">
            <mxPoint x="700" y="740" as="sourcePoint" />
            <mxPoint x="660" y="740" as="targetPoint" />
          </mxGeometry>
        </mxCell>
        <mxCell id="loBwQ56x5LxqGYdifCyA-77" value="" style="endArrow=classic;html=1;rounded=0;" parent="WIyWlLk6GJQsqaUBKTNV-1" edge="1">
          <mxGeometry width="50" height="50" relative="1" as="geometry">
            <mxPoint x="470" y="740" as="sourcePoint" />
            <mxPoint x="520" y="740" as="targetPoint" />
          </mxGeometry>
        </mxCell>
        <mxCell id="loBwQ56x5LxqGYdifCyA-78" value="Analista Logistica Reversa" style="rounded=0;whiteSpace=wrap;html=1;strokeColor=#d6b656;fillColor=#fff2cc;" parent="WIyWlLk6GJQsqaUBKTNV-1" vertex="1">
          <mxGeometry x="711" y="710" width="99" height="50" as="geometry" />
        </mxCell>
        <mxCell id="loBwQ56x5LxqGYdifCyA-79" value="Rede" style="shape=process;whiteSpace=wrap;html=1;backgroundOutline=1;strokeColor=#6c8ebf;fillColor=#dae8fc;" parent="WIyWlLk6GJQsqaUBKTNV-1" vertex="1">
          <mxGeometry x="360" y="705" width="100" height="60" as="geometry" />
        </mxCell>
        <mxCell id="loBwQ56x5LxqGYdifCyA-80" value="" style="endArrow=classic;html=1;rounded=0;" parent="WIyWlLk6GJQsqaUBKTNV-1" edge="1">
          <mxGeometry width="50" height="50" relative="1" as="geometry">
            <mxPoint x="590" y="780" as="sourcePoint" />
            <mxPoint x="590" y="820" as="targetPoint" />
          </mxGeometry>
        </mxCell>
        <mxCell id="loBwQ56x5LxqGYdifCyA-81" value="Enviado as Ordens e Remessa Feitas ao Fiscal" style="rounded=0;whiteSpace=wrap;html=1;strokeColor=#82b366;dashed=1;fillColor=#d5e8d4;" parent="WIyWlLk6GJQsqaUBKTNV-1" vertex="1">
          <mxGeometry x="530" y="830" width="120" height="60" as="geometry" />
        </mxCell>
        <mxCell id="loBwQ56x5LxqGYdifCyA-82" value="" style="endArrow=classic;html=1;rounded=0;" parent="WIyWlLk6GJQsqaUBKTNV-1" edge="1">
          <mxGeometry width="50" height="50" relative="1" as="geometry">
            <mxPoint x="470" y="860" as="sourcePoint" />
            <mxPoint x="520" y="860" as="targetPoint" />
          </mxGeometry>
        </mxCell>
        <mxCell id="loBwQ56x5LxqGYdifCyA-83" value="" style="endArrow=classic;html=1;rounded=0;" parent="WIyWlLk6GJQsqaUBKTNV-1" edge="1">
          <mxGeometry width="50" height="50" relative="1" as="geometry">
            <mxPoint x="710" y="860" as="sourcePoint" />
            <mxPoint x="660" y="860" as="targetPoint" />
          </mxGeometry>
        </mxCell>
        <mxCell id="loBwQ56x5LxqGYdifCyA-84" value="Analista Fiscal" style="rounded=0;whiteSpace=wrap;html=1;strokeColor=#d6b656;fillColor=#fff2cc;" parent="WIyWlLk6GJQsqaUBKTNV-1" vertex="1">
          <mxGeometry x="713" y="835" width="97" height="50" as="geometry" />
        </mxCell>
        <mxCell id="loBwQ56x5LxqGYdifCyA-85" value="E-mail" style="shape=process;whiteSpace=wrap;html=1;backgroundOutline=1;strokeColor=#6c8ebf;fillColor=#dae8fc;" parent="WIyWlLk6GJQsqaUBKTNV-1" vertex="1">
          <mxGeometry x="360" y="820" width="100" height="60" as="geometry" />
        </mxCell>
        <mxCell id="loBwQ56x5LxqGYdifCyA-86" value="" style="endArrow=classic;html=1;rounded=0;" parent="WIyWlLk6GJQsqaUBKTNV-1" edge="1">
          <mxGeometry width="50" height="50" relative="1" as="geometry">
            <mxPoint x="589.5" y="900" as="sourcePoint" />
            <mxPoint x="590" y="930" as="targetPoint" />
          </mxGeometry>
        </mxCell>
        <mxCell id="loBwQ56x5LxqGYdifCyA-87" value="Equipe Fiscal faz validação das notas e encaminha para Financeiro&amp;nbsp;" style="rounded=0;whiteSpace=wrap;html=1;strokeColor=#82b366;fillColor=#d5e8d4;dashed=1;" parent="WIyWlLk6GJQsqaUBKTNV-1" vertex="1">
          <mxGeometry x="530" y="940" width="120" height="60" as="geometry" />
        </mxCell>
        <mxCell id="loBwQ56x5LxqGYdifCyA-88" value="Fiscal" style="rounded=0;whiteSpace=wrap;html=1;strokeColor=#d6b656;fillColor=#fff2cc;" parent="WIyWlLk6GJQsqaUBKTNV-1" vertex="1">
          <mxGeometry x="720" y="940" width="90" height="60" as="geometry" />
        </mxCell>
        <mxCell id="loBwQ56x5LxqGYdifCyA-89" value="E-mail" style="shape=process;whiteSpace=wrap;html=1;backgroundOutline=1;strokeColor=#6c8ebf;fillColor=#dae8fc;" parent="WIyWlLk6GJQsqaUBKTNV-1" vertex="1">
          <mxGeometry x="365" y="940" width="95" height="60" as="geometry" />
        </mxCell>
        <mxCell id="loBwQ56x5LxqGYdifCyA-90" value="" style="endArrow=classic;html=1;rounded=0;" parent="WIyWlLk6GJQsqaUBKTNV-1" edge="1">
          <mxGeometry width="50" height="50" relative="1" as="geometry">
            <mxPoint x="710" y="970" as="sourcePoint" />
            <mxPoint x="660" y="970" as="targetPoint" />
          </mxGeometry>
        </mxCell>
        <mxCell id="loBwQ56x5LxqGYdifCyA-91" value="" style="endArrow=classic;html=1;rounded=0;" parent="WIyWlLk6GJQsqaUBKTNV-1" edge="1">
          <mxGeometry width="50" height="50" relative="1" as="geometry">
            <mxPoint x="470" y="970" as="sourcePoint" />
            <mxPoint x="520" y="970" as="targetPoint" />
          </mxGeometry>
        </mxCell>
        <mxCell id="loBwQ56x5LxqGYdifCyA-92" value="" style="endArrow=classic;html=1;rounded=0;" parent="WIyWlLk6GJQsqaUBKTNV-1" edge="1">
          <mxGeometry width="50" height="50" relative="1" as="geometry">
            <mxPoint x="590" y="1020" as="sourcePoint" />
            <mxPoint x="590" y="1050" as="targetPoint" />
          </mxGeometry>
        </mxCell>
        <mxCell id="loBwQ56x5LxqGYdifCyA-93" value="" style="endArrow=classic;html=1;rounded=0;" parent="WIyWlLk6GJQsqaUBKTNV-1" edge="1">
          <mxGeometry width="50" height="50" relative="1" as="geometry">
            <mxPoint x="710" y="1090" as="sourcePoint" />
            <mxPoint x="660" y="1090" as="targetPoint" />
          </mxGeometry>
        </mxCell>
        <mxCell id="loBwQ56x5LxqGYdifCyA-94" value="" style="endArrow=classic;html=1;rounded=0;" parent="WIyWlLk6GJQsqaUBKTNV-1" edge="1">
          <mxGeometry width="50" height="50" relative="1" as="geometry">
            <mxPoint x="470" y="1090" as="sourcePoint" />
            <mxPoint x="520" y="1090" as="targetPoint" />
          </mxGeometry>
        </mxCell>
        <mxCell id="loBwQ56x5LxqGYdifCyA-95" value="Financeiro" style="rounded=0;whiteSpace=wrap;html=1;strokeColor=#d6b656;fillColor=#fff2cc;" parent="WIyWlLk6GJQsqaUBKTNV-1" vertex="1">
          <mxGeometry x="711" y="1060" width="93" height="60" as="geometry" />
        </mxCell>
        <mxCell id="loBwQ56x5LxqGYdifCyA-96" value="SAP" style="shape=process;whiteSpace=wrap;html=1;backgroundOutline=1;strokeColor=#6c8ebf;fillColor=#dae8fc;" parent="WIyWlLk6GJQsqaUBKTNV-1" vertex="1">
          <mxGeometry x="360" y="1060" width="100" height="60" as="geometry" />
        </mxCell>
        <mxCell id="zTomdQX7B3oOg1DRpIoz-3" value="" style="endArrow=classic;html=1;rounded=0;" edge="1" parent="WIyWlLk6GJQsqaUBKTNV-1">
          <mxGeometry width="50" height="50" relative="1" as="geometry">
            <mxPoint x="430" y="200" as="sourcePoint" />
            <mxPoint x="430" y="180" as="targetPoint" />
          </mxGeometry>
        </mxCell>
      </root>
    </mxGraphModel>
  </diagram>
</mxfile>
